<svg width="32" height="32" viewBox="0 0 32 32" xmlns="http://www.w3.org/2000/svg">
  <defs>
    <clipPath id="C-clip">
      <rect x="0" y="0" width="11" height="30" />
    </clipPath>
  </defs>
  <g transform="translate(1,1)">
    <g id="C" fill="#2196f3" clip-path="url(#C-clip)">
      <path d="M 12,0 l -6,0 c -6,0 -6,0 -6,6 l 0,18 c 0,6 0,6 6,6 l 6,0 l 0,-6 l -6,0 l 0,-18 l 6,0 l 0,-6 Z" />
    </g>
    <g id="P" fill="#0d47a1">
      <path d="M 12,0 l 12,0 c 6,0 6,0 6,6 l 0,6 c 0,6 0,6 -6,6 l -12,0 l 0,-6 l 12,0 l 0,-6 l -12,0 l 0,-6 Z" />
      <rect x="12" y="0" width="6" height="30" />
    </g>
    <g id="dot" fill="#f57c00">
      <rect x="24" y="24" width="6" height="6" />
    </g>
  </g>
</svg>
