<svg width="60" height="60" viewBox="0 0 60 60" xmlns="http://www.w3.org/2000/svg">
  <defs>
    <clipPath id="C-clip">
      <rect x="0" y="0" width="18" height="50" />
    </clipPath>
  </defs>
  <g transform="translate(5,5)">
    <g id="C" fill="#2196f3" clip-path="url(#C-clip)">
      <path d="M 20,0 l -10,0 c -10,0 -10,0 -10,10 l 0,30 c 0,10 0,10 10,10 l 10,0 l 0,-10 l -10,0 l 0,-30 l 10,0 l 0,-10 Z" />
    </g>
    <g id="P" fill="#0d47a1">
      <path d="M 20,0 l 20,0 c 10,0 10,0 10,10 l 0,10 c 0,10 0,10 -10,10 l -20,0 l 0,-10 l 20,0 l 0,-10 l -20,0 l 0,-10 Z" />
      <rect x="20" y="0" width="10" height="50" />
    </g>
    <g id="dot" fill="#f57c00">
      <rect x="40" y="40" width="10" height="10" />
    </g>
  </g>
</svg>
